<?xml version="1.0" standalone="no"?><!DOCTYPE svg PUBLIC "-//W3C//DTD SVG 1.1//EN" "http://www.w3.org/Graphics/SVG/1.1/DTD/svg11.dtd"><svg t="1665373889878" class="icon" viewBox="0 0 1024 1024" version="1.1" xmlns="http://www.w3.org/2000/svg" p-id="9316" xmlns:xlink="http://www.w3.org/1999/xlink" width="200" height="200"><path d="M85.333333 682.666667m149.333334 0l0 0q149.333333 0 149.333333 149.333333l0 0q0 149.333333-149.333333 149.333333l0 0q-149.333333 0-149.333334-149.333333l0 0q0-149.333333 149.333334-149.333333Z" fill="#EF4253" fill-opacity=".8" p-id="9317"></path><path d="M441.472 555.52c38.485333 0 69.674667 31.189333 69.674667 69.674667v243.797333C511.146667 907.52 479.957333 938.666667 441.472 938.666667H197.674667A69.674667 69.674667 0 0 1 128 868.992v-243.797333c0-38.485333 31.189333-69.674667 69.674667-69.674667h243.797333z m452.778667 0c38.485333 0 69.674667 31.189333 69.674666 69.674667v243.797333c0 38.485333-31.189333 69.674667-69.674666 69.674667h-243.797334a69.674667 69.674667 0 0 1-69.674666-69.674667v-243.797333c0-38.485333 31.189333-69.674667 69.674666-69.674667h243.797334zM441.472 625.194667H197.674667v243.797333h243.797333v-243.797333z m452.778667 0h-243.797334v243.797333h243.797334v-243.797333zM772.352 85.333333a208.981333 208.981333 0 1 1 0 417.962667 208.981333 208.981333 0 0 1 0-417.962667zM441.472 102.741333c38.485333 0 69.674667 31.189333 69.674667 69.674667v243.797333c0 38.485333-31.189333 69.674667-69.674667 69.674667H197.674667A69.674667 69.674667 0 0 1 128 416.213333V172.416C128 133.930667 159.189333 102.741333 197.674667 102.741333h243.797333z m330.88 52.266667a139.306667 139.306667 0 1 0 0 278.613333 139.306667 139.306667 0 0 0 0-278.613333z m-330.88 17.408H197.674667v243.797333h243.797333V172.416z" fill="#333333" p-id="9318"></path></svg>