<?xml version="1.0" standalone="no"?><!DOCTYPE svg PUBLIC "-//W3C//DTD SVG 1.1//EN" "http://www.w3.org/Graphics/SVG/1.1/DTD/svg11.dtd"><svg t="1665373866769" class="icon" viewBox="0 0 1024 1024" version="1.1" xmlns="http://www.w3.org/2000/svg" p-id="8770" xmlns:xlink="http://www.w3.org/1999/xlink" width="200" height="200"><path d="M213.333333 256m32 0l320 0q32 0 32 32l0 0q0 32-32 32l-320 0q-32 0-32-32l0 0q0-32 32-32Z" fill="#EF4253" fill-opacity=".8" p-id="8771"></path><path d="M160 704H480v128H224A32 32 0 0 0 224 896h576a32 32 0 0 0 0-64h-256v-128H864a64 64 0 0 0 64-64V192A64 64 0 0 0 864 128H160A64 64 0 0 0 96 192V640a64 64 0 0 0 64 64z m0-512H864V640H160V192z" fill="#333333" p-id="8772"></path></svg>