<?xml version="1.0" standalone="no"?><!DOCTYPE svg PUBLIC "-//W3C//DTD SVG 1.1//EN" "http://www.w3.org/Graphics/SVG/1.1/DTD/svg11.dtd"><svg t="1665373883050" class="icon" viewBox="0 0 1024 1024" version="1.1" xmlns="http://www.w3.org/2000/svg" p-id="9180" xmlns:xlink="http://www.w3.org/1999/xlink" width="200" height="200"><path d="M85.333333 256m106.666667 0l0 0q106.666667 0 106.666667 106.666667l0 0q0 106.666667-106.666667 106.666666l0 0q-106.666667 0-106.666667-106.666666l0 0q0-106.666667 106.666667-106.666667Z" fill="#EF4253" fill-opacity=".8" p-id="9181"></path><path d="M620.842667 138.24c37.248 0 68.010667 28.586667 71.125333 64.938667l0.298667 6.144v66.816h143.616c37.248 0 67.84 28.586667 70.954666 64.981333l0.256 6.144v467.370667c0 37.205333-28.586667 67.754667-65.066666 70.826666l-6.144 0.298667H188.245333c-37.205333 0-67.925333-28.586667-71.082666-64.981333l-0.256-6.144V347.306667c0-37.205333 28.8-67.754667 65.237333-70.826667l6.101333-0.298667h143.573334V209.322667A71.253333 71.253333 0 0 1 397.013333 138.496L403.157333 138.24h217.685334zM430.378667 580.266667H176.554667v234.368c0 5.418667 3.84 10.069333 9.045333 11.264l2.645333 0.298666h647.68c5.418667 0 9.984-3.797333 11.178667-8.917333l0.341333-2.645333v-234.325334h-253.653333v73.6a29.781333 29.781333 0 0 1-25.813333 29.482667l-4.053334 0.298667h-103.68a29.824 29.824 0 0 1-29.568-25.728l-0.298666-4.053334V580.266667z m103.68-51.712H490.112v95.530666h44.032V528.554667z m301.824-192.853334H188.245333a11.690667 11.690667 0 0 0-11.690666 11.562667v173.44h253.866666V498.773333c0-16.512 13.397333-29.738667 29.824-29.738666h103.68c16.469333 0 29.866667 13.226667 29.866667 29.738666v21.930667h253.653333V347.306667a11.562667 11.562667 0 0 0-11.52-11.562667z m-215.04-137.898666H403.2a11.690667 11.690667 0 0 0-11.690667 11.52v66.816h241.066667V209.322667a11.605333 11.605333 0 0 0-11.690667-11.52z" fill="#333333" p-id="9182"></path></svg>