<?xml version="1.0" standalone="no"?><!DOCTYPE svg PUBLIC "-//W3C//DTD SVG 1.1//EN" "http://www.w3.org/Graphics/SVG/1.1/DTD/svg11.dtd"><svg t="1665373901824" class="icon" viewBox="0 0 1024 1024" version="1.1" xmlns="http://www.w3.org/2000/svg" p-id="9589" xmlns:xlink="http://www.w3.org/1999/xlink" width="200" height="200"><path d="M597.333333 682.666667m128 0l0 0q128 0 128 128l0 0q0 128-128 128l0 0q-128 0-128-128l0 0q0-128 128-128Z" fill="#EF4253" fill-opacity=".8" p-id="9590"></path><path d="M473.216 742.4a38.4 38.4 0 1 1 76.8 0 38.4 38.4 0 0 1-76.8 0zM511.616 256.426667a155.434667 155.434667 0 0 0-151.893333 123.392c-3.626667 17.28 11.008 31.786667 28.714666 31.786666 17.664 0 31.445333-14.762667 37.546667-31.36a91.392 91.392 0 0 1 85.632-59.861333 91.306667 91.306667 0 0 1 91.221333 91.221333c0 34.389333-28.458667 68.906667-65.578666 84.010667l-0.170667 0.042667a93.013333 93.013333 0 0 0-57.472 86.272v26.069333a32 32 0 0 0 64 0v-26.069333a29.013333 29.013333 0 0 1 17.834667-27.093334c52.906667-21.546667 105.386667-74.922667 105.386666-143.232a155.306667 155.306667 0 0 0-155.221333-155.221333z" fill="#333333" p-id="9591"></path><path d="M959.616 512c0-247.424-200.533333-448-448-448C264.192 64 63.616 264.576 63.616 512s200.576 448 448 448c247.466667 0 448-200.576 448-448z m-64 0a384 384 0 1 1-768 0 384 384 0 0 1 768 0z" fill="#333333" p-id="9592"></path></svg>