<?xml version="1.0" standalone="no"?><!DOCTYPE svg PUBLIC "-//W3C//DTD SVG 1.1//EN" "http://www.w3.org/Graphics/SVG/1.1/DTD/svg11.dtd"><svg t="1665373872336" class="icon" viewBox="0 0 1024 1024" version="1.1" xmlns="http://www.w3.org/2000/svg" p-id="8906" xmlns:xlink="http://www.w3.org/1999/xlink" width="200" height="200"><path d="M128 725.333333m128 0l0 0q128 0 128 128l0 0q0 128-128 128l0 0q-128 0-128-128l0 0q0-128 128-128Z" fill="#EF4253" fill-opacity=".8" p-id="8907"></path><path d="M854.4 758.4A29.013333 29.013333 0 0 1 832 768H256c-19.2 0-32 12.8-32 32v64a29.013333 29.013333 0 0 0 9.6 22.4c6.4 6.4 12.8 9.6 22.4 9.6h576c19.2 0 32 12.8 32 32s-12.8 32-32 32H256c-54.4 0-96-41.6-96-96V160C160 105.6 201.6 64 256 64h512c54.4 0 96 41.6 96 96v576a29.013333 29.013333 0 0 1-9.6 22.4zM800 704V160c0-19.2-12.8-32-32-32H256c-19.2 0-32 12.8-32 32v550.4c9.6-3.2 19.2-6.4 32-6.4h544zM416 256h192c35.2 0 64 28.8 64 64V384c0 35.2-28.8 64-64 64h-192c-35.2 0-64-28.8-64-64V320c0-35.2 28.8-64 64-64z m0 64V384h192V320h-192z" fill="#333333" p-id="8908"></path></svg>