<?xml version="1.0" standalone="no"?><!DOCTYPE svg PUBLIC "-//W3C//DTD SVG 1.1//EN" "http://www.w3.org/Graphics/SVG/1.1/DTD/svg11.dtd"><svg t="1665373842814" class="icon" viewBox="0 0 1024 1024" version="1.1" xmlns="http://www.w3.org/2000/svg" p-id="8633" xmlns:xlink="http://www.w3.org/1999/xlink" width="200" height="200"><path d="M85.333333 256m128 0l0 0q128 0 128 128l0 0q0 128-128 128l0 0q-128 0-128-128l0 0q0-128 128-128Z" fill="#EF4253" fill-opacity=".8" p-id="8634"></path><path d="M302.762667 464.725333l9.6-44.885333C332.586667 325.034667 414.976 255.914667 512 255.914667c97.024 0 179.413333 69.12 199.68 163.925333l9.557333 44.885333 45.568 5.290667C838.656 478.421333 896 540.928 896 618.581333c0 83.541333-66.346667 149.333333-145.066667 149.333334H273.066667c-78.72 0-145.066667-65.792-145.066667-149.333334 0-77.653333 57.344-140.16 129.194667-148.522666l45.568-5.333334z m471.466666-58.24C747.946667 283.306667 640.426667 191.914667 512 191.914667S276.053333 283.349333 249.770667 406.485333C145.237333 418.645333 64 508.885333 64 618.581333c0 117.632 93.781333 213.333333 209.066667 213.333334h477.866666c115.285333 0 209.066667-95.701333 209.066667-213.333334 0-109.696-81.237333-199.936-185.770667-212.096z" fill="#333333" p-id="8635"></path><path d="M512 640m32 0l160 0q32 0 32 32l0 0q0 32-32 32l-160 0q-32 0-32-32l0 0q0-32 32-32Z" fill="#EF4253" fill-opacity=".8" p-id="8636"></path></svg>