<?xml version="1.0" standalone="no"?><!DOCTYPE svg PUBLIC "-//W3C//DTD SVG 1.1//EN" "http://www.w3.org/Graphics/SVG/1.1/DTD/svg11.dtd"><svg t="1665373906702" class="icon" viewBox="0 0 1024 1024" version="1.1" xmlns="http://www.w3.org/2000/svg" p-id="9726" xmlns:xlink="http://www.w3.org/1999/xlink" width="200" height="200"><path d="M682.666667 597.333333m128 0l0 0q128 0 128 128l0 0q0 128-128 128l0 0q-128 0-128-128l0 0q0-128 128-128Z" fill="#EF4253" fill-opacity=".8" p-id="9727"></path><path d="M896 707.626667c0.597333 38.357333-10.24 79.658667-33.109333 112.64l-8.106667 10.709333a129.621333 129.621333 0 0 1-62.72 47.957333c-17.92 6.698667-29.184 8.661333-58.197333 11.946667-124.672 11.690667-260.949333-46.506667-395.52-166.186667C248.533333 644.565333 181.248 544.341333 148.821333 441.856 135.125333 398.549333 128 356.906667 128 319.232c0-45.184 10.197333-84.309333 30.72-113.706667C178.176 178.816 215.168 156.586667 270.762667 135.594667a64 64 0 0 1 74.88 22.954666L452.266667 309.418667a64 64 0 0 1-5.76 80.896l-13.866667 14.165333-16.768 16.256a97.877333 97.877333 0 0 0-10.581333 12.117333c-1.450667 19.626667 19.456 60.032 80.426666 122.368l18.133334 17.066667c56.192 51.797333 71.338667 55.936 88.576 43.946667l5.76-4.693334c6.101333-4.693333 22.101333-15.786667 56.192-39.253333a64 64 0 0 1 66.005333-3.925333l15.488 8.192c106.453333 56.832 155.050667 91.008 159.786667 126.08l0.341333 4.992z m-64 1.024c0.085333 5.290667-7.338667-2.816-22.741333-13.952-22.485333-16.213333-57.045333-36.864-103.466667-61.610667l-15.189333-8.064-50.432 34.816c-1.152 0.768-1.706667 1.066667-1.493334 0.853333-55.04 43.178667-102.4 31.061333-197.973333-59.904-73.344-75.050667-102.4-131.072-99.328-172.373333 1.450667-22.570667 17.024-43.221333 32.128-55.637333 6.4-6.144 12.757333-12.373333 18.432-18.133334l8.021333-8.277333-106.581333-150.869333c-44.885333 16.938667-72.661333 33.578667-82.56 47.189333-11.946667 17.066667-18.816 43.562667-18.816 76.544 0 30.72 6.016 65.962667 17.834667 103.338667 28.8 91.093333 89.6 181.632 171.093333 254.293333 122.410667 108.885333 242.346667 160.128 346.325333 150.4l16.469334-2.048c11.434667-1.621333 17.834667-3.2 25.941333-6.229333 14.037333-5.248 25.088-13.482667 34.133333-26.538667 17.066667-20.906667 26.197333-47.616 27.904-72.96l0.298667-10.794667z" fill="#333333" p-id="9728"></path></svg>