<?xml version="1.0" standalone="no"?><!DOCTYPE svg PUBLIC "-//W3C//DTD SVG 1.1//EN" "http://www.w3.org/Graphics/SVG/1.1/DTD/svg11.dtd"><svg t="1665373896778" class="icon" viewBox="0 0 1024 1024" version="1.1" xmlns="http://www.w3.org/2000/svg" p-id="9452" xmlns:xlink="http://www.w3.org/1999/xlink" width="200" height="200"><path d="M682.666667 85.333333m149.333333 0l0 0q149.333333 0 149.333333 149.333334l0 0q0 149.333333-149.333333 149.333333l0 0q-149.333333 0-149.333333-149.333333l0 0q0-149.333333 149.333333-149.333334Z" fill="#EF4253" fill-opacity=".8" p-id="9453"></path><path d="M877.696 113.578667H146.346667A82.602667 82.602667 0 0 0 63.786667 196.096v651.904c0 45.482667 36.992 82.474667 82.517333 82.474667h731.477333a82.602667 82.602667 0 0 0 82.517334-82.474667V196.053333A82.730667 82.730667 0 0 0 877.696 113.621333zM125.44 361.984h773.205333v485.888c0 11.52-9.386667 20.906667-20.906666 20.906667H146.346667a21.034667 21.034667 0 0 1-20.906667-20.906667V361.984z m20.906667-186.794667h731.477333c11.52 0 20.906667 9.386667 20.906667 20.906667V300.373333H125.44V196.096c0-11.52 9.386667-20.906667 20.906667-20.906667z" fill="#333333" p-id="9454"></path><path d="M631.296 739.328c0 7.893333 2.986667 15.274667 8.618667 20.906667l0.085333 0.085333a29.269333 29.269333 0 0 0 20.906667 8.576 29.354667 29.354667 0 0 0 20.906666-8.661333l124.16-124.032c11.52-11.52 11.52-30.293333 0-41.813334l-124.16-124.16a29.098667 29.098667 0 0 0-20.608-8.32 29.568 29.568 0 0 0-21.205333 50.218667l103.082667 103.082667L640 718.421333a29.354667 29.354667 0 0 0-8.704 20.906667z m-177.28 77.994667l0.170667 0.085333a29.738667 29.738667 0 0 0 36.608-20.181333l99.2-347.52a29.44 29.44 0 0 0-20.096-36.48h-0.085334a29.482667 29.482667 0 0 0-36.48 19.498666c-0.128 0.213333-0.128 0.469333-0.213333 0.682667L433.792 780.8a29.610667 29.610667 0 0 0 20.181333 36.48zM342.101333 760.32A29.781333 29.781333 0 0 0 384 760.234667c11.52-11.52 11.52-30.293333 0-41.813334l-103.210667-103.082666L384 512a29.653333 29.653333 0 0 0-21.333333-50.090667 29.397333 29.397333 0 0 0-20.565334 8.405334l-124.117333 123.989333c-11.52 11.52-11.52 30.293333 0 41.813333l124.117333 124.16z" fill="#333333" p-id="9455"></path></svg>