<?xml version="1.0" standalone="no"?><!DOCTYPE svg PUBLIC "-//W3C//DTD SVG 1.1//EN" "http://www.w3.org/Graphics/SVG/1.1/DTD/svg11.dtd"><svg t="1665373877369" class="icon" viewBox="0 0 1024 1024" version="1.1" xmlns="http://www.w3.org/2000/svg" p-id="9042" xmlns:xlink="http://www.w3.org/1999/xlink" width="200" height="200"><path d="M694.954667 606.08a29.866667 29.866667 0 0 1 42.24 42.24l-37.888 37.930667h141.226666a29.866667 29.866667 0 0 1 0 59.733333h-141.226666l37.888 37.888a29.866667 29.866667 0 1 1-42.24 42.24l-88.32-88.405333a29.738667 29.738667 0 0 1-0.554667-42.709334l88.874667-88.917333z" fill="#F26875" p-id="9043"></path><path d="M490.752 102.357333a53.333333 53.333333 0 0 1 42.496 0l362.666667 157.610667c19.498667 8.448 32.085333 27.690667 32.085333 48.896v134.101333a32 32 0 0 1-64 0V315.861333L512 162.901333 160 315.861333V864h389.333333a32 32 0 0 1 0 64H149.333333c-29.44 0-53.333333-23.893333-53.333333-53.333333V308.906667c0-21.248 12.586667-40.490667 32.085333-48.938667l362.666667-157.610667z" fill="#333333" p-id="9044"></path><path d="M384 437.333333a32 32 0 0 1 32 32v426.666667a32 32 0 0 1-64 0V469.333333a32 32 0 0 1 32-32z" fill="#333333" p-id="9045"></path><path d="M266.666667 469.333333a32 32 0 0 1 32-32h426.666666a32 32 0 0 1 0 64H298.666667a32 32 0 0 1-32-32z" fill="#333333" p-id="9046"></path></svg>